<?xml version="1.0" encoding="utf-8"?>

<!-- Uploaded to: SVG Repo, www.svgrepo.com, Generator: SVG Repo Mixer Tools -->
<svg version="1.1" id="Icons" xmlns="http://www.w3.org/2000/svg" xmlns:xlink="http://www.w3.org/1999/xlink" 
	 viewBox="0 0 32 32" xml:space="preserve">
<style type="text/css">
	.st0{fill:none;stroke:#000000;stroke-width:2;stroke-linecap:round;stroke-linejoin:round;stroke-miterlimit:10;}
</style>
<path d="M25,2H7C5.3,2,4,3.3,4,5v22c0,1.7,1.3,3,3,3h14c3.9,0,7-3.1,7-7V5C28,3.3,26.7,2,25,2z M13,24h-1v1c0,0.6-0.4,1-1,1
	s-1-0.4-1-1v-1H9c-0.6,0-1-0.4-1-1s0.4-1,1-1h1v-1c0-0.6,0.4-1,1-1s1,0.4,1,1v1h1c0.6,0,1,0.4,1,1S13.6,24,13,24z M19.5,26
	c-0.8,0-1.5-0.7-1.5-1.5s0.7-1.5,1.5-1.5s1.5,0.7,1.5,1.5S20.3,26,19.5,26z M22.5,23c-0.8,0-1.5-0.7-1.5-1.5s0.7-1.5,1.5-1.5
	s1.5,0.7,1.5,1.5S23.3,23,22.5,23z M24,17c0,0.6-0.4,1-1,1H9c-0.6,0-1-0.4-1-1V7c0-0.6,0.4-1,1-1h14c0.6,0,1,0.4,1,1V17z"/>
</svg>