<?xml version="1.0" encoding="utf-8"?>
<!-- Generator: Adobe Illustrator 27.7.0, SVG Export Plug-In . SVG Version: 6.00 Build 0)  -->
<svg version="1.1" id="Layer_1" xmlns="http://www.w3.org/2000/svg" xmlns:xlink="http://www.w3.org/1999/xlink" x="0px" y="0px"
	 viewBox="0 0 333.2 117.5" style="enable-background:new 0 0 333.2 117.5;" xml:space="preserve">
<style type="text/css">
	.st0{fill:#F1FAFE;}
</style>
<g>
	<g>
		<path class="st0" d="M117.9,45c0,6.8-5.4,9-12.5,9c-7.3,0-12.9-2.2-12.9-8.9V17.7c0-6.8,5.6-8.9,12.9-8.9c7.1,0,12.2,2.2,12.2,9
			v5.4c0,4.2-2,6.4-7.1,6.8c4.9,0.4,7.4,2.3,7.4,5.9V45z M110.3,17.1c0-2.9-1.9-4.1-4.9-4.1c-3.1,0-5.1,1.2-5.1,4.1v11.1h5.2
			c3.3,0,4.8-1.3,4.8-4.5V17.1z M110.4,36.5c0-3.1-1.7-4.5-4.8-4.5h-5.2v13.8c0,2.9,2,4.1,5.1,4.1c3.1,0,5-1.1,5-4.1V36.5z"/>
		<path class="st0" d="M159.3,52.7V17.2c0-2.8-1.7-4-4.5-4c-2.8,0-4.5,1.3-4.5,3.9v35.5h-7.8v-36c0-2.2-2.2-3.5-4.4-3.5
			c-2.8,0-4.5,1.2-4.5,4v35.5h-7.8V17.3c0-6,5.6-8.6,12.1-8.6c3.7,0,6.8,1.1,8.6,3.2c1.9-2.1,5-3.2,8.7-3.2c6.5,0,12,2.5,12,8.6
			v35.3H159.3z"/>
		<path class="st0" d="M196.3,52.7l-0.7-3.7c-1.6,2.6-4.1,5-10.1,5c-5.1,0-10.7-2.2-10.7-8.9V17.7c0-6.8,5.6-8.9,12.9-8.9
			c7.2,0,12.1,2.2,12.1,9v7.1h-7.2v-7.7c0-2.9-1.9-4.1-4.9-4.1c-3.1,0-5.1,1.2-5.1,4.1v28.6c0,2.9,2,4.1,5,4.1
			c3.8,0,5.3-1.9,5.5-4.4V35.2h-5.6v-4.2h13v21.6H196.3z"/>
		<path class="st0" d="M226,52.7V37.9c0-3.1-1.7-4.6-4.8-4.6h-5.2v19.3h-7.8V17.7c0-6.8,5.6-8.9,12.9-8.9c7.1,0,12.2,2.2,12.2,9v6.9
			c0,4.2-2,6.4-7.1,6.8c4.9,0.4,7.4,2.3,7.4,5.9v15.4H226z M225.9,17.1c0-2.9-1.9-4.1-4.9-4.1s-5.1,1.2-5.1,4.1v12.5h5.2
			c3.3,0,4.8-1.3,4.8-4.6V17.1z"/>
		<path class="st0" d="M241.7,52.7V10h21.8v4.5h-14.1v12.6h13.7v4.4h-13.7v16.5h14.1v4.5H241.7z"/>
		<path class="st0" d="M295.2,45.8c0,6-4.4,8.2-12.4,8.2c-7.1,0-12-2.2-12-9v-7h7.2v7.5c0,3.2,1.7,4.3,4.8,4.3s5-1.1,5-4.4v-3.3
			c0-2.6-0.5-4.1-2.6-5.6l-9.9-6.9c-3.2-2.2-4.2-4.5-4.2-8.2v-3.8c0-6.6,4-8.8,12.1-8.8c7.1,0,12,2.2,12,9v5.6H288v-6
			c0-2.8-1.3-4.1-4.7-4.1s-4.8,1.3-4.8,4V20c0,3.1,0.6,4.2,2.6,5.6l10.1,7c3.1,2.2,4.1,5,4.1,9.2V45.8z"/>
		<path class="st0" d="M327.4,45.8c0,6-4.4,8.2-12.4,8.2c-7.1,0-12-2.2-12-9v-7h7.2v7.5c0,3.2,1.7,4.3,4.8,4.3s5-1.1,5-4.4v-3.3
			c0-2.6-0.5-4.1-2.6-5.6l-9.9-6.9c-3.2-2.2-4.2-4.5-4.2-8.2v-3.8c0-6.6,4-8.8,12.1-8.8c7.1,0,12,2.2,12,9v5.6h-7.2v-6
			c0-2.8-1.3-4.1-4.7-4.1s-4.8,1.3-4.8,4V20c0,3.1,0.6,4.2,2.6,5.6l10.1,7c3.1,2.2,4.1,5,4.1,9.2V45.8z"/>
	</g>
	<g>
		<path class="st0" d="M119.2,77.7c0,2.6-2.1,3.4-4.8,3.4c-2.8,0-4.9-0.8-4.9-3.4V67.3c0-2.6,2.1-3.4,4.9-3.4c2.7,0,4.7,0.8,4.7,3.4
			v2.1c0,1.6-0.8,2.4-2.7,2.6c1.9,0.2,2.8,0.9,2.8,2.3V77.7z M116.3,67.1c0-1.1-0.7-1.6-1.9-1.6s-1.9,0.5-1.9,1.6v4.2h2
			c1.3,0,1.8-0.5,1.8-1.7V67.1z M116.3,74.5c0-1.2-0.6-1.7-1.8-1.7h-2V78c0,1.1,0.8,1.6,1.9,1.6s1.9-0.4,1.9-1.6V74.5z"/>
		<path class="st0" d="M122.5,80.7V64.4h8.3v1.7h-5.4V71h5.2v1.7h-5.2v6.3h5.4v1.7H122.5z"/>
		<path class="st0" d="M140.7,80.7V74h-3.9v6.7h-3V67.2c0-2.1,2.1-3.2,4.9-3.2c2.7,0,4.9,1.1,4.9,3.2v13.5H140.7z M140.7,67.1
			c0-1.1-0.8-1.6-1.9-1.6c-1.2,0-1.9,0.5-1.9,1.6v5.2h3.9V67.1z"/>
		<path class="st0" d="M149.8,80.7V66h-3.4v-1.6h9.8V66h-3.4v14.6H149.8z"/>
		<path class="st0" d="M171.5,80.7V67.1c0-1.1-0.7-1.5-1.7-1.5c-1,0-1.7,0.5-1.7,1.5v13.6h-3V66.9c0-0.8-0.8-1.3-1.7-1.3
			c-1,0-1.7,0.5-1.7,1.5v13.5h-3V67.2c0-2.3,2.1-3.3,4.6-3.3c1.4,0,2.6,0.4,3.3,1.2c0.7-0.8,1.9-1.2,3.3-1.2c2.5,0,4.6,1,4.6,3.3
			v13.5H171.5z"/>
		<path class="st0" d="M184.6,80.7V74h-3.9v6.7h-3V67.2c0-2.1,2.1-3.2,4.9-3.2c2.7,0,4.9,1.1,4.9,3.2v13.5H184.6z M184.6,67.1
			c0-1.1-0.8-1.6-1.9-1.6c-1.2,0-1.9,0.5-1.9,1.6v5.2h3.9V67.1z"/>
		<path class="st0" d="M197.7,80.7V67.1c0-1.1-0.8-1.6-1.9-1.6c-1.2,0-1.9,0.5-1.9,1.6v13.6h-3V67.3c0-2.6,2.1-3.4,4.9-3.4
			c2.7,0,4.9,0.8,4.9,3.4v13.3H197.7z"/>
		<path class="st0" d="M204.1,80.7V64.4h3v16.3H204.1z"/>
		<path class="st0" d="M217.4,80.7V74h-3.9v6.7h-3V67.2c0-2.1,2.1-3.2,4.9-3.2c2.7,0,4.9,1.1,4.9,3.2v13.5H217.4z M217.4,67.1
			c0-1.1-0.8-1.6-1.9-1.6c-1.2,0-1.9,0.5-1.9,1.6v5.2h3.9V67.1z"/>
		<path class="st0" d="M230.4,80.7V67.3c0-2.6,2.1-3.4,4.9-3.4c2.7,0,4.8,0.8,4.8,3.4v4.1c0,2.2-1.6,3.8-4.4,3.8
			c-1,0-1.6-0.1-2.3-0.4v5.9H230.4z M237.2,67.1c0-1.1-0.7-1.6-1.9-1.6c-1.2,0-1.9,0.5-1.9,1.6v6.1c0.3,0.3,1.2,0.4,1.8,0.4
			c1.2,0,2.1-0.7,2.1-2V67.1z"/>
		<path class="st0" d="M249.7,80.7V75c0-1.2-0.6-1.8-1.8-1.8h-2v7.4h-3V67.3c0-2.6,2.1-3.4,4.9-3.4c2.7,0,4.7,0.8,4.7,3.4V70
			c0,1.6-0.8,2.4-2.7,2.6c1.9,0.2,2.8,0.9,2.8,2.2v5.9H249.7z M249.6,67.1c0-1.1-0.7-1.6-1.9-1.6c-1.2,0-1.9,0.5-1.9,1.6v4.8h2
			c1.3,0,1.8-0.5,1.8-1.8V67.1z"/>
		<path class="st0" d="M255.7,67.3c0-2.6,2.1-3.4,4.9-3.4c2.7,0,4.9,0.8,4.9,3.4v10.4c0,2.6-2.2,3.4-4.9,3.4c-2.8,0-4.9-0.8-4.9-3.4
			V67.3z M262.6,67.1c0-1.1-0.8-1.6-1.9-1.6s-1.9,0.5-1.9,1.6V78c0,1.1,0.8,1.6,1.9,1.6s1.9-0.4,1.9-1.6V67.1z"/>
		<path class="st0" d="M276.8,80.7l-0.3-1.4c-0.6,1-1.6,1.9-3.9,1.9c-1.9,0-4.1-0.8-4.1-3.4V67.3c0-2.6,2.1-3.4,4.9-3.4
			c2.7,0,4.6,0.8,4.6,3.4V70h-2.7v-2.9c0-1.1-0.7-1.6-1.9-1.6s-1.9,0.5-1.9,1.6V78c0,1.1,0.8,1.6,1.9,1.6c1.5,0,2-0.7,2.1-1.7V74
			h-2.1v-1.6h5v8.2H276.8z"/>
		<path class="st0" d="M288.4,80.7V75c0-1.2-0.6-1.8-1.8-1.8h-2v7.4h-3V67.3c0-2.6,2.1-3.4,4.9-3.4c2.7,0,4.7,0.8,4.7,3.4V70
			c0,1.6-0.8,2.4-2.7,2.6c1.9,0.2,2.8,0.9,2.8,2.2v5.9H288.4z M288.3,67.1c0-1.1-0.7-1.6-1.9-1.6c-1.2,0-1.9,0.5-1.9,1.6v4.8h2
			c1.3,0,1.8-0.5,1.8-1.8V67.1z"/>
		<path class="st0" d="M294.6,80.7V64.4h8.3v1.7h-5.4V71h5.2v1.7h-5.2v6.3h5.4v1.7H294.6z"/>
		<path class="st0" d="M315.2,78c0,2.3-1.7,3.1-4.7,3.1c-2.7,0-4.6-0.8-4.6-3.4v-2.7h2.7v2.9c0,1.2,0.6,1.6,1.8,1.6s1.9-0.4,1.9-1.7
			v-1.3c0-1-0.2-1.6-1-2.1l-3.8-2.6c-1.2-0.8-1.6-1.7-1.6-3.1v-1.4c0-2.5,1.5-3.4,4.6-3.4c2.7,0,4.6,0.8,4.6,3.4v2.1h-2.8v-2.3
			c0-1.1-0.5-1.6-1.8-1.6c-1.3,0-1.8,0.5-1.8,1.5v1.1c0,1.2,0.2,1.6,1,2.1l3.9,2.7c1.2,0.8,1.6,1.9,1.6,3.5V78z"/>
		<path class="st0" d="M327.7,78c0,2.3-1.7,3.1-4.7,3.1c-2.7,0-4.6-0.8-4.6-3.4v-2.7h2.7v2.9c0,1.2,0.6,1.6,1.8,1.6s1.9-0.4,1.9-1.7
			v-1.3c0-1-0.2-1.6-1-2.1l-3.8-2.6c-1.2-0.8-1.6-1.7-1.6-3.1v-1.4c0-2.5,1.5-3.4,4.6-3.4c2.7,0,4.6,0.8,4.6,3.4v2.1H325v-2.3
			c0-1.1-0.5-1.6-1.8-1.6c-1.3,0-1.8,0.5-1.8,1.5v1.1c0,1.2,0.2,1.6,1,2.1l3.9,2.7c1.2,0.8,1.6,1.9,1.6,3.5V78z"/>
		<path class="st0" d="M112.4,108V93.4H109v-1.6h9.8v1.6h-3.4V108H112.4z"/>
		<path class="st0" d="M128.2,108v-5.6c0-1.2-0.6-1.8-1.8-1.8h-2v7.4h-3V94.7c0-2.6,2.1-3.4,4.9-3.4c2.7,0,4.7,0.8,4.7,3.4v2.6
			c0,1.6-0.8,2.4-2.7,2.6c1.9,0.2,2.8,0.9,2.8,2.2v5.9H128.2z M128.2,94.5c0-1.1-0.7-1.6-1.9-1.6c-1.2,0-1.9,0.5-1.9,1.6v4.8h2
			c1.3,0,1.8-0.5,1.8-1.8V94.5z"/>
		<path class="st0" d="M141.2,108v-6.7h-3.9v6.7h-3V94.6c0-2.1,2.1-3.2,4.9-3.2c2.7,0,4.9,1.1,4.9,3.2V108H141.2z M141.2,94.5
			c0-1.1-0.8-1.6-1.9-1.6c-1.2,0-1.9,0.5-1.9,1.6v5.2h3.9V94.5z"/>
		<path class="st0" d="M154.1,101.7h2.7v3.4c0,2.6-1.9,3.4-4.6,3.4c-2.8,0-4.9-0.8-4.9-3.4V94.7c0-2.6,2.1-3.4,4.9-3.4
			c2.7,0,4.6,0.8,4.6,3.4v3.1h-2.7v-3.3c0-1.1-0.7-1.6-1.9-1.6s-1.9,0.5-1.9,1.6v10.9c0,1.1,0.8,1.6,1.9,1.6s1.9-0.4,1.9-1.6V101.7z
			"/>
		<path class="st0" d="M167,108l-4.2-8.2v8.2h-3V91.8h3v7.3l4.2-7.3h2.8l-4.4,7.2l4.8,9H167z"/>
		<path class="st0" d="M172.9,108V91.8h8.3v1.7h-5.4v4.8h5.2v1.7h-5.2v6.3h5.4v1.7H172.9z"/>
		<path class="st0" d="M191.1,108v-5.6c0-1.2-0.6-1.8-1.8-1.8h-2v7.4h-3V94.7c0-2.6,2.1-3.4,4.9-3.4c2.7,0,4.7,0.8,4.7,3.4v2.6
			c0,1.6-0.8,2.4-2.7,2.6c1.9,0.2,2.8,0.9,2.8,2.2v5.9H191.1z M191.1,94.5c0-1.1-0.7-1.6-1.9-1.6c-1.2,0-1.9,0.5-1.9,1.6v4.8h2
			c1.3,0,1.8-0.5,1.8-1.8V94.5z"/>
		<path class="st0" d="M210.9,108v-6.7H207v6.7h-3V94.6c0-2.1,2.1-3.2,4.9-3.2c2.7,0,4.9,1.1,4.9,3.2V108H210.9z M210.9,94.5
			c0-1.1-0.8-1.6-1.9-1.6c-1.2,0-1.9,0.5-1.9,1.6v5.2h3.9V94.5z"/>
		<path class="st0" d="M217.1,108V94.7c0-2.6,2.1-3.4,4.9-3.4c2.7,0,4.8,0.8,4.8,3.4v4.1c0,2.2-1.6,3.8-4.4,3.8
			c-1,0-1.6-0.1-2.3-0.4v5.9H217.1z M223.9,94.5c0-1.1-0.7-1.6-1.9-1.6c-1.2,0-1.9,0.5-1.9,1.6v6.1c0.3,0.3,1.2,0.4,1.8,0.4
			c1.2,0,2.1-0.7,2.1-2V94.5z"/>
		<path class="st0" d="M229.6,108V94.7c0-2.6,2.1-3.4,4.9-3.4c2.7,0,4.8,0.8,4.8,3.4v4.1c0,2.2-1.6,3.8-4.4,3.8
			c-1,0-1.6-0.1-2.3-0.4v5.9H229.6z M236.4,94.5c0-1.1-0.7-1.6-1.9-1.6c-1.2,0-1.9,0.5-1.9,1.6v6.1c0.3,0.3,1.2,0.4,1.8,0.4
			c1.2,0,2.1-0.7,2.1-2V94.5z"/>
	</g>
	<g>
		<g>
			<path class="st0" d="M23.2,108.7H11.7c-3,0-5.5-2.5-5.5-5.5V69.6c0-3,2.5-5.5,5.5-5.5h11.6c3,0,5.5,2.5,5.5,5.5v33.6
				C28.7,106.3,26.3,108.7,23.2,108.7z"/>
		</g>
		<g>
			<path class="st0" d="M56.9,108.7H45.4c-3,0-5.5-2.5-5.5-5.5V69.6c0-3,2.5-5.5,5.5-5.5h11.6c3,0,5.5,2.5,5.5,5.5v33.6
				C62.4,106.3,60,108.7,56.9,108.7z"/>
		</g>
		<g>
			<path class="st0" d="M90.7,108.7H79.1c-3,0-5.5-2.5-5.5-5.5V69.6c0-3,2.5-5.5,5.5-5.5h11.6c3,0,5.5,2.5,5.5,5.5v33.6
				C96.2,106.3,93.7,108.7,90.7,108.7z"/>
		</g>
		<g>
			<path class="st0" d="M40.1,53.7H28.5c-3,0-5.5-2.5-5.5-5.5V14.5c0-3,2.5-5.5,5.5-5.5h11.6c3,0,5.5,2.5,5.5,5.5v33.6
				C45.6,51.2,43.1,53.7,40.1,53.7z"/>
		</g>
		<g>
			<path class="st0" d="M73.8,53.7H62.2c-3,0-5.5-2.5-5.5-5.5V14.5c0-3,2.5-5.5,5.5-5.5h11.6c3,0,5.5,2.5,5.5,5.5v33.6
				C79.3,51.2,76.8,53.7,73.8,53.7z"/>
		</g>
	</g>
</g>
</svg>
