<?xml version="1.0" encoding="iso-8859-1"?>
<!-- Uploaded to: SVG Repo, www.svgrepo.com, Generator: SVG Repo Mixer Tools -->
<!DOCTYPE svg PUBLIC "-//W3C//DTD SVG 1.1//EN" "http://www.w3.org/Graphics/SVG/1.1/DTD/svg11.dtd">
<svg fill="#000000" version="1.1" id="Capa_1" xmlns="http://www.w3.org/2000/svg" xmlns:xlink="http://www.w3.org/1999/xlink" 
	 width="800px" height="800px" viewBox="0 0 456 456" xml:space="preserve">
<g>
	<path d="M426,104.188H30c-16.568,0-30,13.432-30,30v187.625c0,16.568,13.432,30,30,30h396c16.568,0,30-13.432,30-30V134.188
		C456,117.619,442.568,104.188,426,104.188z M118.23,238.789c0,3.192-2.594,5.779-5.773,5.779H92.799v19.651
		c0,3.192-2.594,5.78-5.773,5.78h-21.59c-3.18,0-5.774-2.588-5.774-5.78v-19.651H40.004c-3.18,0-5.773-2.587-5.773-5.779v-21.578
		c0-3.194,2.594-5.781,5.773-5.781h19.657v-19.65c0-3.193,2.595-5.78,5.774-5.78h21.59c3.18,0,5.773,2.587,5.773,5.78v19.65h19.658
		c3.18,0,5.773,2.587,5.773,5.781L118.23,238.789L118.23,238.789z M311.5,312.85h-167v-169.7h167V312.85z M386,282
		c-11.598,0-21-9.402-21-21c0-11.599,9.402-21,21-21s21,9.401,21,21C407,272.598,397.598,282,386,282z M386,216
		c-11.598,0-21-9.402-21-21s9.402-21,21-21s21,9.402,21,21S397.598,216,386,216z"/>
</g>
</svg>